<svg width="24" height="24" viewBox="0 0 24 24" fill="none" xmlns="http://www.w3.org/2000/svg">
<circle cx="12" cy="12" r="11.5" stroke="#0E122F"/>
<path d="M18.1151 13.3864H13.3765V18.1136C13.3765 18.882 12.7592 19.5 11.9917 19.5C11.2241 19.5 10.6068 18.882 10.6068 18.1136V13.3864H5.88487C5.11735 13.3697 4.5 12.7517 4.5 11.9833C4.5 11.6141 4.65017 11.265 4.90044 10.9978C5.16741 10.7472 5.5178 10.5969 5.88487 10.5969H10.6068V5.88641C10.6068 5.11804 11.2241 4.5 11.9917 4.5C12.7592 4.5 13.3765 5.11804 13.3765 5.88641V10.5969H18.1151C18.8826 10.5969 19.5 11.2149 19.5 11.9833C19.5 12.7517 18.8826 13.3697 18.1151 13.3864Z" fill="#0E122F"/>
</svg>
