<svg width="28" height="28" viewBox="0 0 28 28" fill="none" xmlns="http://www.w3.org/2000/svg">
<path fill-rule="evenodd" clip-rule="evenodd" d="M7.87508 15.75C12.6222 15.75 12.8334 17.36 12.8334 20.7083C12.8334 22.386 12.8334 23.5795 12.1287 24.4533C11.3179 25.4602 9.84208 25.6667 7.87508 25.6667C5.90808 25.6667 4.43225 25.4602 3.62141 24.4533C2.91675 23.5795 2.91675 22.3872 2.91675 20.7375L3.79175 20.7083H2.91675C2.91675 17.36 3.12791 15.75 7.87508 15.75ZM20.7084 15.75C25.4556 15.75 25.6667 17.36 25.6667 20.7083C25.6667 22.386 25.6667 23.5795 24.9621 24.4533C24.1512 25.4602 22.6754 25.6667 20.7084 25.6667C18.7414 25.6667 17.2656 25.4602 16.4547 24.4533C15.7501 23.5795 15.7501 22.3872 15.7501 20.7375L16.6251 20.7083H15.7501C15.7501 17.36 15.9612 15.75 20.7084 15.75ZM8.1156 17.5005L7.87508 17.5C4.83128 17.5 4.67519 17.7184 4.66718 20.2732L4.66767 21.2685C4.6732 22.2847 4.71191 23.0187 4.98291 23.3567C5.29208 23.7393 6.21025 23.9167 7.87508 23.9167C9.53991 23.9167 10.4581 23.7382 10.7672 23.3555C11.0834 22.9623 11.0834 22.029 11.0834 20.7363C11.0834 17.8194 11.0834 17.5142 8.1156 17.5005ZM20.9489 17.5005L20.7084 17.5C17.6646 17.5 17.5085 17.7184 17.5005 20.2732L17.501 21.2685C17.5065 22.2847 17.5452 23.0187 17.8162 23.3567C18.1254 23.7393 19.0436 23.9167 20.7084 23.9167C22.3732 23.9167 23.2914 23.7382 23.6006 23.3555C23.9167 22.9623 23.9167 22.029 23.9167 20.7363C23.9167 17.8194 23.9167 17.5142 20.9489 17.5005ZM7.87508 2.91666C12.6222 2.91666 12.8334 4.52666 12.8334 7.87499C12.8334 9.55266 12.8334 10.7462 12.1287 11.62C11.3179 12.6268 9.84208 12.8333 7.87508 12.8333C5.90808 12.8333 4.43225 12.6268 3.62141 11.62C2.91675 10.7462 2.91675 9.55382 2.91675 7.90416L3.79175 7.87499H2.91675C2.91675 4.52666 3.12791 2.91666 7.87508 2.91666ZM20.7084 2.91666C25.4556 2.91666 25.6667 4.52666 25.6667 7.87499C25.6667 9.55266 25.6667 10.7462 24.9621 11.62C24.1512 12.6268 22.6754 12.8333 20.7084 12.8333C18.7414 12.8333 17.2656 12.6268 16.4547 11.62C15.7501 10.7462 15.7501 9.55382 15.7501 7.90416L16.6251 7.87499H15.7501C15.7501 4.52666 15.9612 2.91666 20.7084 2.91666ZM8.1156 4.66718L7.87508 4.66666C4.83128 4.66666 4.67519 4.88507 4.66718 7.43988L4.66767 8.4352C4.6732 9.45132 4.71191 10.1853 4.98291 10.5233C5.29208 10.906 6.21025 11.0833 7.87508 11.0833C9.53991 11.0833 10.4581 10.9048 10.7672 10.5222C11.0834 10.129 11.0834 9.19566 11.0834 7.90299C11.0834 4.98608 11.0834 4.68091 8.1156 4.66718ZM20.9489 4.66718L20.7084 4.66666C17.6646 4.66666 17.5085 4.88507 17.5005 7.43988L17.501 8.4352C17.5065 9.45132 17.5452 10.1853 17.8162 10.5233C18.1254 10.906 19.0436 11.0833 20.7084 11.0833C22.3732 11.0833 23.2914 10.9048 23.6006 10.5222C23.9167 10.129 23.9167 9.19566 23.9167 7.90299C23.9167 4.98608 23.9167 4.68091 20.9489 4.66718Z" fill="#0E122F"/>
</svg>
