<svg width="28" height="28" viewBox="0 0 28 28" fill="none" xmlns="http://www.w3.org/2000/svg">
<path fill-rule="evenodd" clip-rule="evenodd" d="M7.87508 15.7501C12.6222 15.7501 12.8334 17.3601 12.8334 20.7084C12.8334 22.3861 12.8334 23.5796 12.1287 24.4534C11.3179 25.4602 9.84208 25.6667 7.87508 25.6667C5.90808 25.6667 4.43225 25.4602 3.62141 24.4534C2.91675 23.5796 2.91675 22.3872 2.91675 20.7376L3.79175 20.7084H2.91675C2.91675 17.3601 3.12791 15.7501 7.87508 15.7501ZM20.7084 15.7501C25.4556 15.7501 25.6667 17.3601 25.6667 20.7084C25.6667 22.3861 25.6667 23.5796 24.9621 24.4534C24.1512 25.4602 22.6754 25.6667 20.7084 25.6667C18.7414 25.6667 17.2656 25.4602 16.4547 24.4534C15.7501 23.5796 15.7501 22.3872 15.7501 20.7376L16.6251 20.7084H15.7501C15.7501 17.3601 15.9612 15.7501 20.7084 15.7501ZM8.1156 17.5006L7.87508 17.5001C4.83128 17.5001 4.67519 17.7185 4.66718 20.2733L4.66767 21.2686C4.6732 22.2847 4.71191 23.0187 4.98291 23.3567C5.29208 23.7394 6.21025 23.9167 7.87508 23.9167C9.53991 23.9167 10.4581 23.7382 10.7672 23.3556C11.0834 22.9624 11.0834 22.0291 11.0834 20.7364C11.0834 17.8195 11.0834 17.5143 8.1156 17.5006ZM20.9489 17.5006L20.7084 17.5001C17.6646 17.5001 17.5085 17.7185 17.5005 20.2733L17.501 21.2686C17.5065 22.2847 17.5452 23.0187 17.8162 23.3567C18.1254 23.7394 19.0436 23.9167 20.7084 23.9167C22.3732 23.9167 23.2914 23.7382 23.6006 23.3556C23.9167 22.9624 23.9167 22.0291 23.9167 20.7364C23.9167 17.8195 23.9167 17.5143 20.9489 17.5006ZM7.87508 2.91675C12.6222 2.91675 12.8334 4.52675 12.8334 7.87508C12.8334 9.55275 12.8334 10.7462 12.1287 11.6201C11.3179 12.6269 9.84208 12.8334 7.87508 12.8334C5.90808 12.8334 4.43225 12.6269 3.62141 11.6201C2.91675 10.7462 2.91675 9.55391 2.91675 7.90425L3.79175 7.87508H2.91675C2.91675 4.52675 3.12791 2.91675 7.87508 2.91675ZM20.7084 2.91675C25.4556 2.91675 25.6667 4.52675 25.6667 7.87508C25.6667 9.55275 25.6667 10.7462 24.9621 11.6201C24.1512 12.6269 22.6754 12.8334 20.7084 12.8334C18.7414 12.8334 17.2656 12.6269 16.4547 11.6201C15.7501 10.7462 15.7501 9.55391 15.7501 7.90425L16.6251 7.87508H15.7501C15.7501 4.52675 15.9612 2.91675 20.7084 2.91675ZM8.1156 4.66727L7.87508 4.66675C4.83128 4.66675 4.67519 4.88516 4.66718 7.43997L4.66767 8.43529C4.6732 9.45141 4.71191 10.1854 4.98291 10.5234C5.29208 10.9061 6.21025 11.0834 7.87508 11.0834C9.53991 11.0834 10.4581 10.9049 10.7672 10.5222C11.0834 10.1291 11.0834 9.19575 11.0834 7.90308C11.0834 4.98618 11.0834 4.681 8.1156 4.66727ZM20.9489 4.66727L20.7084 4.66675C17.6646 4.66675 17.5085 4.88516 17.5005 7.43997L17.501 8.43529C17.5065 9.45141 17.5452 10.1854 17.8162 10.5234C18.1254 10.9061 19.0436 11.0834 20.7084 11.0834C22.3732 11.0834 23.2914 10.9049 23.6006 10.5222C23.9167 10.1291 23.9167 9.19575 23.9167 7.90308C23.9167 4.98618 23.9167 4.681 20.9489 4.66727Z" fill="white"/>
</svg>
