<svg width="28" height="22" viewBox="0 0 28 22" fill="none" xmlns="http://www.w3.org/2000/svg">
<path d="M24 18H4C3.46973 17.9995 2.96133 17.7886 2.58637 17.4136C2.21141 17.0387 2.00053 16.5303 2 16V2C2.00053 1.46973 2.21141 0.961329 2.58637 0.586371C2.96133 0.211413 3.46973 0.000529477 4 0H24C24.5303 0.000529477 25.0387 0.211413 25.4136 0.586371C25.7886 0.961329 25.9995 1.46973 26 2V16C25.9992 16.5302 25.7882 17.0384 25.4133 17.4133C25.0384 17.7882 24.5302 17.9992 24 18ZM4 2V16H24V2H4Z" fill="#4252C7"/>
<path d="M0 20H28V22H0V20Z" fill="#4252C7"/>
</svg>
