<svg width="28" height="28" viewBox="0 0 28 28" fill="none" xmlns="http://www.w3.org/2000/svg">
<path fill-rule="evenodd" clip-rule="evenodd" d="M18.5603 2.33334C22.2283 2.33334 24.6923 4.84518 24.6923 8.58318V19.3118C24.6923 23.0825 22.3041 25.5348 18.6081 25.5582L9.63292 25.5617C5.96492 25.5617 3.49976 23.0498 3.49976 19.3118V8.58318C3.49976 4.81134 5.88792 2.36018 9.58392 2.33801L18.5591 2.33334H18.5603ZM18.5603 4.08334L9.58976 4.08801C6.87376 4.10434 5.24976 5.78434 5.24976 8.58318V19.3118C5.24976 22.1293 6.88892 23.8117 9.63176 23.8117L18.6023 23.8082C21.3183 23.7918 22.9423 22.1095 22.9423 19.3118V8.58318C22.9423 5.76568 21.3043 4.08334 18.5603 4.08334ZM18.3352 18.0527C18.8182 18.0527 19.2102 18.4447 19.2102 18.9277C19.2102 19.4107 18.8182 19.8027 18.3352 19.8027H9.91187C9.42887 19.8027 9.03687 19.4107 9.03687 18.9277C9.03687 18.4447 9.42887 18.0527 9.91187 18.0527H18.3352ZM18.3352 13.1684C18.8182 13.1684 19.2102 13.5604 19.2102 14.0434C19.2102 14.5264 18.8182 14.9184 18.3352 14.9184H9.91187C9.42887 14.9184 9.03687 14.5264 9.03687 14.0434C9.03687 13.5604 9.42887 13.1684 9.91187 13.1684H18.3352ZM13.1257 8.29548C13.6087 8.29548 14.0007 8.68748 14.0007 9.17048C14.0007 9.65348 13.6087 10.0455 13.1257 10.0455H9.91152C9.42852 10.0455 9.03652 9.65348 9.03652 9.17048C9.03652 8.68748 9.42852 8.29548 9.91152 8.29548H13.1257Z" fill="white"/>
</svg>
