<svg width="25" height="24" viewBox="0 0 25 24" fill="none" xmlns="http://www.w3.org/2000/svg">
<path d="M9.82246 14.3667C9.24746 13.7927 8.89746 13.0127 8.89746 12.1377C8.89746 10.3847 10.3095 8.97168 12.0615 8.97168C12.9285 8.97168 13.7265 9.32268 14.2915 9.89668" stroke="#525252" stroke-width="1.5" stroke-linecap="round" stroke-linejoin="round"/>
<path d="M15.1666 12.6987C14.9346 13.9887 13.9186 15.0067 12.6296 15.2407" stroke="#525252" stroke-width="1.5" stroke-linecap="round" stroke-linejoin="round"/>
<path d="M6.7164 17.4722C5.1294 16.2262 3.7854 14.4062 2.8114 12.1372C3.7954 9.85823 5.1484 8.02823 6.7454 6.77223C8.3324 5.51623 10.1634 4.83423 12.0614 4.83423C13.9704 4.83423 15.8004 5.52623 17.3974 6.79123" stroke="#525252" stroke-width="1.5" stroke-linecap="round" stroke-linejoin="round"/>
<path d="M19.5094 8.99072C20.1974 9.90472 20.8024 10.9597 21.3114 12.1367C19.3444 16.6937 15.8684 19.4387 12.0614 19.4387C11.1984 19.4387 10.3474 19.2987 9.52942 19.0257" stroke="#525252" stroke-width="1.5" stroke-linecap="round" stroke-linejoin="round"/>
<path d="M19.9488 4.24951L4.1748 20.0235" stroke="#525252" stroke-width="1.5" stroke-linecap="round" stroke-linejoin="round"/>
</svg>
