<svg width="120" height="55" viewBox="0 0 120 55" fill="none" xmlns="http://www.w3.org/2000/svg">
<circle r="27.1262" transform="matrix(1 0 0 -1 27.1262 27.1262)" fill="#FA5020"/>
<path d="M20.7122 39.5078C19.0726 39.5078 17.6017 39.2185 16.2997 38.6398C14.9976 38.037 13.9608 37.2292 13.1892 36.2165C12.4417 35.2038 12.0318 34.0826 11.9595 32.8529H17.0592C17.1557 33.6245 17.5294 34.2634 18.1804 34.7698C18.8556 35.2762 19.6874 35.5293 20.676 35.5293C21.6405 35.5293 22.388 35.3364 22.9185 34.9506C23.473 34.5648 23.7503 34.0705 23.7503 33.4677C23.7503 32.8167 23.4128 32.3345 22.7376 32.021C22.0866 31.6834 21.0377 31.3218 19.591 30.936C18.096 30.5743 16.8663 30.2005 15.9018 29.8147C14.9614 29.4289 14.1416 28.8382 13.4424 28.0425C12.7672 27.2468 12.4297 26.1738 12.4297 24.8235C12.4297 23.7144 12.7431 22.7016 13.37 21.7854C14.0211 20.8691 14.9373 20.1458 16.1188 19.6153C17.3244 19.0848 18.735 18.8196 20.3505 18.8196C22.7376 18.8196 24.6425 19.4224 26.0651 20.628C27.4877 21.8095 28.2714 23.413 28.416 25.4384H23.5695C23.4972 24.6427 23.1596 24.0158 22.5568 23.5576C21.9781 23.0754 21.1944 22.8343 20.2058 22.8343C19.2896 22.8343 18.5783 23.003 18.0719 23.3406C17.5897 23.6782 17.3485 24.1484 17.3485 24.7512C17.3485 25.4263 17.6861 25.9447 18.3613 26.3064C19.0364 26.644 20.0853 26.9936 21.5079 27.3553C22.9546 27.717 24.1482 28.0907 25.0886 28.4765C26.0289 28.8623 26.8367 29.4651 27.5118 30.2849C28.2111 31.0806 28.5728 32.1416 28.5969 33.4677C28.5969 34.6251 28.2714 35.662 27.6203 36.5782C26.9934 37.4945 26.0772 38.2178 24.8716 38.7483C23.6901 39.2547 22.3036 39.5078 20.7122 39.5078Z" fill="#F7F8FD"/>
<path d="M31.6322 29.1637C31.6322 27.0901 32.0542 25.2816 32.8981 23.7385C33.742 22.1712 34.9115 20.9656 36.4064 20.1216C37.9014 19.2536 39.6133 18.8196 41.5423 18.8196C44.0259 18.8196 46.0754 19.4465 47.6909 20.7003C49.3306 21.9301 50.4277 23.6661 50.9822 25.9086H45.5208C45.2315 25.0405 44.7372 24.3654 44.0379 23.8831C43.3628 23.3768 42.5189 23.1236 41.5061 23.1236C40.0594 23.1236 38.9141 23.6541 38.0702 24.715C37.2262 25.7518 36.8043 27.2347 36.8043 29.1637C36.8043 31.0686 37.2262 32.5515 38.0702 33.6124C38.9141 34.6492 40.0594 35.1677 41.5061 35.1677C43.5557 35.1677 44.8939 34.2514 45.5208 32.4189H50.9822C50.4277 34.589 49.3306 36.313 47.6909 37.5909C46.0513 38.8689 44.0018 39.5078 41.5423 39.5078C39.6133 39.5078 37.9014 39.0859 36.4064 38.242C34.9115 37.3739 33.742 36.1683 32.8981 34.6251C32.0542 33.0578 31.6322 31.2374 31.6322 29.1637Z" fill="#F7F8FD"/>
<path d="M59.9362 22.2556C60.5872 21.1946 61.4311 20.3628 62.4679 19.76C63.5289 19.1572 64.7345 18.8557 66.0848 18.8557V24.1725H64.7465C63.1551 24.1725 61.9495 24.5462 61.1297 25.2937C60.334 26.0412 59.9362 27.3432 59.9362 29.1999V39.1823H54.8726V19.1451H59.9362V22.2556Z" fill="#F7F8FD"/>
<path d="M88.3028 28.7297C88.3028 29.4531 88.2546 30.1041 88.1582 30.6828H73.51C73.6306 32.1295 74.1369 33.2628 75.0291 34.0826C75.9212 34.9024 77.0183 35.3123 78.3204 35.3123C80.2011 35.3123 81.5394 34.5046 82.3351 32.889H87.7965C87.2178 34.818 86.1086 36.4094 84.469 37.6633C82.8294 38.893 80.816 39.5078 78.4289 39.5078C76.4999 39.5078 74.7638 39.0859 73.2207 38.242C71.7016 37.3739 70.508 36.1563 69.64 34.589C68.7961 33.0217 68.3741 31.2133 68.3741 29.1637C68.3741 27.0901 68.7961 25.2696 69.64 23.7023C70.4839 22.135 71.6654 20.9294 73.1845 20.0855C74.7036 19.2415 76.4517 18.8196 78.4289 18.8196C80.3338 18.8196 82.0337 19.2295 83.5286 20.0493C85.0477 20.8691 86.2171 22.0386 87.0369 23.5576C87.8809 25.0526 88.3028 26.7766 88.3028 28.7297ZM83.0584 27.283C83.0343 25.9809 82.5641 24.9441 81.6479 24.1725C80.7316 23.3768 79.6104 22.9789 78.2842 22.9789C77.0304 22.9789 75.9694 23.3647 75.1014 24.1363C74.2575 24.8838 73.7391 25.9327 73.5462 27.283H83.0584Z" fill="#F7F8FD"/>
<path d="M110.806 28.7297C110.806 29.4531 110.758 30.1041 110.662 30.6828H96.0135C96.134 32.1295 96.6404 33.2628 97.5325 34.0826C98.4247 34.9024 99.5218 35.3123 100.824 35.3123C102.705 35.3123 104.043 34.5046 104.839 32.889H110.3C109.721 34.818 108.612 36.4094 106.972 37.6633C105.333 38.893 103.319 39.5078 100.932 39.5078C99.0034 39.5078 97.2673 39.0859 95.7241 38.242C94.205 37.3739 93.0115 36.1563 92.1435 34.589C91.2995 33.0217 90.8776 31.2133 90.8776 29.1637C90.8776 27.0901 91.2995 25.2696 92.1435 23.7023C92.9874 22.135 94.1689 20.9294 95.688 20.0855C97.207 19.2415 98.9552 18.8196 100.932 18.8196C102.837 18.8196 104.537 19.2295 106.032 20.0493C107.551 20.8691 108.721 22.0386 109.54 23.5576C110.384 25.0526 110.806 26.7766 110.806 28.7297ZM105.562 27.283C105.538 25.9809 105.068 24.9441 104.151 24.1725C103.235 23.3768 102.114 22.9789 100.788 22.9789C99.5338 22.9789 98.4729 23.3647 97.6049 24.1363C96.7609 24.8838 96.2425 25.9327 96.0496 27.283H105.562Z" fill="#F7F8FD"/>
<path d="M116.926 39.4355C116.009 39.4355 115.25 39.1582 114.647 38.6036C114.068 38.0249 113.779 37.3136 113.779 36.4697C113.779 35.6258 114.068 34.9265 114.647 34.3719C115.25 33.7933 116.009 33.5039 116.926 33.5039C117.818 33.5039 118.553 33.7933 119.132 34.3719C119.71 34.9265 120 35.6258 120 36.4697C120 37.3136 119.71 38.0249 119.132 38.6036C118.553 39.1582 117.818 39.4355 116.926 39.4355Z" fill="#F7F8FD"/>
</svg>
