<svg width="28" height="28" viewBox="0 0 28 28" fill="none" xmlns="http://www.w3.org/2000/svg">
<path fill-rule="evenodd" clip-rule="evenodd" d="M14.9785 1.99988C15.8139 1.99988 16.6259 2.34288 17.208 2.93904C17.789 3.53871 18.1099 4.36121 18.0854 5.19538C18.0877 5.38321 18.1495 5.60021 18.2615 5.79038C18.447 6.10538 18.7399 6.32704 19.0875 6.41804C19.4352 6.50438 19.7992 6.45771 20.1084 6.27454C21.6017 5.42171 23.5022 5.93271 24.355 7.41438L25.0819 8.67321C25.1005 8.70704 25.1169 8.73971 25.1309 8.77354C25.9032 10.233 25.3875 12.0705 23.9525 12.9094C23.7437 13.0295 23.5745 13.1975 23.4579 13.4005C23.277 13.7144 23.2269 14.0877 23.3179 14.4307C23.4112 14.7807 23.634 15.0712 23.9479 15.2509C24.656 15.658 25.1845 16.344 25.3957 17.1362C25.6069 17.9272 25.4914 18.7859 25.0795 19.494L24.3049 20.7844C23.452 22.2497 21.5515 22.7572 20.0734 21.9032C19.8762 21.79 19.6487 21.7282 19.4224 21.7224H19.4154C19.0782 21.7224 18.7317 21.8659 18.4797 22.1167C18.2242 22.3722 18.0842 22.7129 18.0865 23.0745C18.0784 24.7884 16.6842 26.1744 14.9785 26.1744H13.5167C11.8029 26.1744 10.4087 24.7814 10.4087 23.0675C10.4064 22.8564 10.3457 22.637 10.2325 22.4469C10.0494 22.1272 9.75304 21.8985 9.41121 21.8075C9.07171 21.7165 8.69954 21.7667 8.39387 21.944C7.66121 22.3524 6.79904 22.4515 6.01037 22.2299C5.22287 22.007 4.54271 21.4657 4.14371 20.7482L3.41454 19.4917C2.56171 18.0124 3.06921 16.1165 4.54621 15.2625C4.96504 15.021 5.22521 14.5707 5.22521 14.0877C5.22521 13.6047 4.96504 13.1532 4.54621 12.9117C3.06804 12.053 2.56171 10.1525 3.41337 8.67321L4.20437 7.37471C5.04554 5.91171 6.94721 5.39604 8.43004 6.24771C8.63187 6.36788 8.85121 6.42854 9.07404 6.43088C9.80087 6.43088 10.4087 5.83121 10.4204 5.09388C10.4157 4.28071 10.7365 3.50021 11.321 2.91104C11.9079 2.32304 12.6872 1.99988 13.5167 1.99988H14.9785ZM14.9785 3.74988H13.5167C13.155 3.74988 12.8167 3.89104 12.5612 4.14538C12.3069 4.40088 12.168 4.74038 12.1704 5.10204C12.1459 6.80771 10.7517 8.18088 9.06354 8.18088C8.52221 8.17505 8.00071 8.02921 7.54804 7.75854C6.91221 7.39688 6.08154 7.61971 5.70937 8.26721L4.91954 9.56571C4.55787 10.1934 4.77954 11.0229 5.42354 11.3974C6.37904 11.9504 6.97521 12.9817 6.97521 14.0877C6.97521 15.1937 6.37904 16.2239 5.42121 16.778C4.78071 17.149 4.55904 17.9739 4.93004 18.6155L5.66621 19.8849C5.84821 20.2127 6.14571 20.4495 6.48987 20.5464C6.83287 20.642 7.21087 20.6012 7.52587 20.4262C7.98904 20.1544 8.52804 20.0132 9.06937 20.0132C9.33654 20.0132 9.60371 20.047 9.86504 20.117C10.6537 20.3294 11.3385 20.8567 11.7445 21.5649C12.0082 22.0094 12.154 22.5285 12.1587 23.0582C12.1587 23.8165 12.7677 24.4244 13.5167 24.4244H14.9785C15.724 24.4244 16.333 23.82 16.3365 23.0745C16.3319 22.2509 16.6539 21.468 17.243 20.8789C17.824 20.2979 18.636 19.949 19.448 19.9724C19.98 19.9852 20.4922 20.1287 20.9437 20.3854C21.5935 20.7575 22.423 20.5359 22.7987 19.8942L23.5734 18.6027C23.746 18.3052 23.7962 17.9319 23.704 17.5877C23.613 17.2435 23.3844 16.9449 23.0764 16.7687C22.3554 16.3534 21.8409 15.6837 21.6274 14.881C21.4162 14.0935 21.5317 13.2337 21.9435 12.5255C22.2119 12.0589 22.605 11.6657 23.0764 11.395C23.7087 11.0252 23.9304 10.198 23.5629 9.55404C23.5477 9.52838 23.5337 9.50154 23.522 9.47354L22.8384 8.28821C22.4662 7.64071 21.6379 7.41788 20.988 7.78771C20.2857 8.20304 19.4504 8.32204 18.6477 8.11088C17.8462 7.90321 17.1742 7.39571 16.7554 6.67938C16.487 6.23138 16.3412 5.70988 16.3365 5.17904C16.347 4.78004 16.207 4.42188 15.9527 4.15938C15.6995 3.89804 15.3437 3.74988 14.9785 3.74988ZM14.2528 10.1363C16.4309 10.1363 18.2031 11.9097 18.2031 14.0878C18.2031 16.266 16.4309 18.037 14.2528 18.037C12.0746 18.037 10.3024 16.266 10.3024 14.0878C10.3024 11.9097 12.0746 10.1363 14.2528 10.1363ZM14.2528 11.8863C13.0394 11.8863 12.0524 12.8745 12.0524 14.0878C12.0524 15.3012 13.0394 16.287 14.2528 16.287C15.4661 16.287 16.4531 15.3012 16.4531 14.0878C16.4531 12.8745 15.4661 11.8863 14.2528 11.8863Z" fill="white"/>
</svg>
