<svg width="44" height="44" viewBox="0 0 44 44" fill="none" xmlns="http://www.w3.org/2000/svg">
<path fill-rule="evenodd" clip-rule="evenodd" d="M23.5378 3.14258C24.8504 3.14258 26.1264 3.68158 27.0413 4.61841C27.9543 5.56074 28.4584 6.85324 28.4199 8.16408C28.4236 8.45924 28.5208 8.80024 28.6968 9.09908C28.9883 9.59408 29.4484 9.94241 29.9948 10.0854C30.5411 10.2211 31.1131 10.1477 31.5989 9.85991C33.9456 8.51974 36.9321 9.32274 38.2723 11.6511L39.4144 13.6292C39.4438 13.6824 39.4694 13.7337 39.4914 13.7869C40.7051 16.0804 39.8948 18.9679 37.6398 20.2861C37.3116 20.4749 37.0458 20.7389 36.8624 21.0579C36.5783 21.5511 36.4994 22.1377 36.6424 22.6767C36.7891 23.2267 37.1393 23.6832 37.6324 23.9656C38.7453 24.6054 39.5758 25.6834 39.9076 26.9282C40.2394 28.1712 40.0579 29.5206 39.4108 30.6334L38.1934 32.6611C36.8533 34.9637 33.8668 35.7612 31.5439 34.4192C31.2341 34.2414 30.8766 34.1442 30.5209 34.1351H30.5099C29.9801 34.1351 29.4356 34.3606 29.0396 34.7547C28.6381 35.1562 28.4181 35.6916 28.4218 36.2599C28.4089 38.9531 26.2181 41.1311 23.5378 41.1311H21.2406C18.5474 41.1311 16.3566 38.9421 16.3566 36.2489C16.3529 35.9171 16.2576 35.5724 16.0798 35.2736C15.7919 34.7712 15.3263 34.4119 14.7891 34.2689C14.2556 34.1259 13.6708 34.2047 13.1904 34.4834C12.0391 35.1251 10.6843 35.2809 9.44494 34.9326C8.20744 34.5824 7.13861 33.7317 6.51161 32.6042L5.36577 30.6297C4.02561 28.3051 4.82311 25.3259 7.14411 23.9839C7.80227 23.6044 8.21111 22.8967 8.21111 22.1377C8.21111 21.3787 7.80227 20.6692 7.14411 20.2897C4.82128 18.9404 4.02561 15.9539 5.36394 13.6292L6.60694 11.5887C7.92877 9.28975 10.9171 8.47941 13.2473 9.81774C13.5644 10.0066 13.9091 10.1019 14.2593 10.1056C15.4014 10.1056 16.3566 9.16324 16.3749 8.00458C16.3676 6.72674 16.8718 5.50024 17.7903 4.57441C18.7124 3.65041 19.9371 3.14258 21.2406 3.14258H23.5378ZM23.5378 5.89258H21.2406C20.6723 5.89258 20.1406 6.11441 19.7391 6.51408C19.3394 6.91558 19.1213 7.44908 19.1249 8.01741C19.0864 10.6977 16.8956 12.8556 14.2428 12.8556C13.3921 12.8464 12.5726 12.6172 11.8613 12.1919C10.8621 11.6236 9.55677 11.9737 8.97194 12.9912L7.73077 15.0317C7.16244 16.0181 7.51077 17.3216 8.52277 17.9101C10.0243 18.7791 10.9611 20.3997 10.9611 22.1377C10.9611 23.8757 10.0243 25.4946 8.51911 26.3654C7.51261 26.9484 7.16427 28.2446 7.74727 29.2529L8.90411 31.2476C9.19011 31.7627 9.65761 32.1349 10.1984 32.2871C10.7374 32.4374 11.3314 32.3732 11.8264 32.0982C12.5543 31.6711 13.4013 31.4492 14.2519 31.4492C14.6718 31.4492 15.0916 31.5024 15.5023 31.6124C16.7416 31.9461 17.8178 32.7747 18.4558 33.8876C18.8701 34.5861 19.0993 35.4019 19.1066 36.2342C19.1066 37.4259 20.0636 38.3811 21.2406 38.3811H23.5378C24.7093 38.3811 25.6663 37.4314 25.6718 36.2599C25.6644 34.9656 26.1704 33.7354 27.0963 32.8096C28.0093 31.8966 29.2853 31.3484 30.5613 31.3851C31.3973 31.4052 32.2021 31.6307 32.9116 32.0341C33.9328 32.6189 35.2363 32.2706 35.8266 31.2622L37.0439 29.2327C37.3153 28.7652 37.3941 28.1786 37.2493 27.6377C37.1063 27.0969 36.7469 26.6276 36.2629 26.3507C35.1299 25.6981 34.3214 24.6457 33.9859 23.3844C33.6541 22.1469 33.8356 20.7957 34.4828 19.6829C34.9044 18.9496 35.5223 18.3317 36.2629 17.9064C37.2566 17.3252 37.6049 16.0254 37.0274 15.0134C37.0036 14.9731 36.9816 14.9309 36.9633 14.8869L35.8889 13.0242C35.3041 12.0067 34.0024 11.6566 32.9813 12.2377C31.8776 12.8904 30.5649 13.0774 29.3036 12.7456C28.0441 12.4192 26.9881 11.6217 26.3299 10.4961C25.9083 9.79208 25.6791 8.97258 25.6718 8.13841C25.6883 7.51141 25.4683 6.94858 25.0686 6.53608C24.6708 6.12541 24.1116 5.89258 23.5378 5.89258ZM22.3973 15.9284C25.8201 15.9284 28.6049 18.7151 28.6049 22.1379C28.6049 25.5608 25.8201 28.3438 22.3973 28.3438C18.9744 28.3438 16.1896 25.5608 16.1896 22.1379C16.1896 18.7151 18.9744 15.9284 22.3973 15.9284ZM22.3973 18.6784C20.4906 18.6784 18.9396 20.2313 18.9396 22.1379C18.9396 24.0446 20.4906 25.5938 22.3973 25.5938C24.3039 25.5938 25.8549 24.0446 25.8549 22.1379C25.8549 20.2313 24.3039 18.6784 22.3973 18.6784Z" fill="#525252"/>
</svg>
