<svg width="32" height="32" viewBox="0 0 32 32" fill="none" xmlns="http://www.w3.org/2000/svg">
<path d="M0.645709 5.64625C-0.201291 6.49425 -0.0202907 7.68825 0.653709 8.36125C0.680709 8.38725 3.38771 10.9732 7.19471 14.7802C7.24102 14.8271 7.29615 14.8642 7.35691 14.8896C7.41768 14.9149 7.48287 14.928 7.54871 14.928C7.61455 14.928 7.67974 14.9149 7.7405 14.8896C7.80127 14.8642 7.8564 14.8271 7.90271 14.7802C7.99645 14.6865 8.0491 14.5593 8.0491 14.4267C8.0491 14.2942 7.99645 14.167 7.90271 14.0732C7.32871 13.4992 6.78271 12.9562 6.26471 12.4422L7.85371 10.8532C7.94479 10.7589 7.99519 10.6326 7.99405 10.5015C7.99291 10.3705 7.94032 10.245 7.84762 10.1523C7.75492 10.0596 7.62951 10.0071 7.49841 10.0059C7.36731 10.0048 7.24101 10.0552 7.14671 10.1462L5.55371 11.7392C4.78451 10.9797 4.01284 10.2227 3.23871 9.46825L6.85371 5.85325C6.94479 5.75895 6.99519 5.63265 6.99405 5.50155C6.99291 5.37045 6.94032 5.24504 6.84762 5.15234C6.75492 5.05964 6.62951 5.00705 6.49841 5.00591C6.36731 5.00477 6.24101 5.05517 6.14671 5.14625L2.52071 8.77225C1.78471 8.05925 1.36071 7.65425 1.35371 7.64725C1.14271 7.43625 0.865709 6.84225 1.35371 6.35425L6.35371 1.35425C6.54671 1.15825 7.06071 0.769249 7.62471 1.33025C7.64971 1.35825 10.1747 4.22625 14.0287 8.08025C14.123 8.17133 14.2493 8.22173 14.3804 8.22059C14.5115 8.21945 14.6369 8.16686 14.7296 8.07416C14.8223 7.98146 14.8749 7.85605 14.876 7.72495C14.8772 7.59385 14.8268 7.46755 14.7357 7.37325C10.9057 3.54425 8.39971 0.698249 8.35371 0.646249C7.42171 -0.283751 6.29771 -0.00475055 5.64671 0.646249L0.645709 5.64625Z" fill="#929292"/>
<path d="M21.8538 24.146C21.7601 24.0523 21.6329 23.9996 21.5003 23.9996C21.3677 23.9996 21.2406 24.0523 21.1468 24.146L19.5558 25.736C19.0474 25.2208 18.5374 24.7071 18.0258 24.195C17.9315 24.104 17.8052 24.0536 17.6741 24.0547C17.543 24.0558 17.4176 24.1084 17.3249 24.2011C17.2322 24.2938 17.1796 24.4192 17.1785 24.5503C17.1773 24.6814 17.2277 24.8077 17.3188 24.902C19.4614 27.0392 21.5709 29.2091 23.6468 31.411C23.9898 31.755 24.4598 31.944 24.9698 31.944C25.4948 31.944 26.0258 31.739 26.3548 31.409L31.3528 26.352C31.9818 25.723 32.0178 24.656 31.4308 24.067L24.7248 17.362C24.6305 17.271 24.5042 17.2206 24.3731 17.2217C24.242 17.2228 24.1166 17.2754 24.0239 17.3681C23.9312 17.4608 23.8786 17.5862 23.8775 17.7173C23.8763 17.8484 23.9267 17.9747 24.0178 18.069L30.7238 24.774C30.9238 24.974 30.8858 25.406 30.6448 25.647L25.6458 30.704C25.5308 30.82 25.2698 30.944 24.9698 30.944C24.7978 30.944 24.5518 30.902 24.3658 30.715C24.3558 30.704 23.9368 30.257 23.2098 29.496L26.8538 25.852C26.9449 25.7577 26.9953 25.6314 26.9942 25.5003C26.993 25.3692 26.9404 25.2438 26.8477 25.1511C26.755 25.0584 26.6296 25.0058 26.4985 25.0047C26.3674 25.0036 26.2411 25.054 26.1468 25.145L22.5178 28.774C21.7683 27.995 21.015 27.2196 20.2578 26.448L21.8538 24.852C21.9473 24.7583 21.9997 24.6314 21.9997 24.499C21.9997 24.3667 21.9473 24.2398 21.8538 24.146Z" fill="#929292"/>
<path d="M0.141851 31.8293C0.205658 31.8944 0.286064 31.9408 0.37437 31.9636C0.462675 31.9863 0.555518 31.9845 0.642851 31.9583L10.6428 28.9792C10.7232 28.9557 10.7962 28.912 10.8548 28.8522L27.9449 11.6473C27.9689 11.6233 27.9809 11.5922 27.9989 11.5652L31.6549 7.90925C31.8002 7.76499 31.9155 7.59339 31.9943 7.40434C32.073 7.21529 32.1135 7.01253 32.1135 6.80775C32.1135 6.60297 32.073 6.40021 31.9943 6.21116C31.9155 6.02211 31.8002 5.85051 31.6549 5.70625L26.4199 0.47225C25.8319 -0.11575 24.8048 -0.11575 24.2169 0.47225L20.4779 4.21125C20.4539 4.23525 20.4409 4.26625 20.4229 4.29425L3.30685 21.4112C3.2509 21.4669 3.20907 21.5351 3.18485 21.6103L0.0248506 31.3253C-0.00357775 31.4119 -0.00770223 31.5047 0.0129255 31.5936C0.0335533 31.6825 0.078144 31.764 0.141851 31.8293ZM20.8599 5.27125L21.8989 6.31025L6.37585 21.8752L4.64885 21.4832L20.8599 5.27125ZM6.99985 22.6663L22.6069 7.01825L25.0429 9.45425L9.29485 25.0002H6.99985V22.6663ZM26.8839 11.2962L10.6399 27.6502L10.0628 25.6483L25.7499 10.1613L26.8839 11.2962ZM3.99285 22.3592L5.99985 22.8153V25.5002C5.99985 25.6329 6.05253 25.76 6.1463 25.8538C6.24007 25.9476 6.36724 26.0002 6.49985 26.0002H9.12385L9.75785 28.2003L1.26985 30.7292L3.99285 22.3592ZM24.9249 1.17925C25.031 1.07749 25.1723 1.02067 25.3194 1.02067C25.4664 1.02067 25.6077 1.07749 25.7139 1.17925L30.9489 6.41425C31.0011 6.46586 31.0425 6.52733 31.0707 6.59509C31.099 6.66285 31.1135 6.73555 31.1134 6.80896C31.1133 6.88237 31.0986 6.95503 31.0702 7.02272C31.0418 7.09041 31.0002 7.15177 30.9479 7.20325L27.5769 10.5752L21.5539 4.55225L24.9249 1.17925Z" fill="#929292"/>
</svg>
